<svg xmlns="http://www.w3.org/2000/svg" width="24" height="24">
          <defs>
            <clipPath id="sushi-path">
              <path fill="none" d="M0 0h24v24H0z"></path>
            </clipPath>
          </defs>
          <g clip-path="url(#sushi-path)">
            <path fill="#b79866" d="M17.713 19.629a8.679 8.679 0 0 1-5.443-1.995 7.321 7.321 0 0 1-1.91-3.467 8.533 8.533 0 0 0-.671-1.654 4.288 4.288 0 0 0-2.57-1.856 13.963 13.963 0 0 0-4.693-.663 1.563 1.563 0 0 1-.5-.079A2.038 2.038 0 0 1 .7 8.326a1.778 1.778 0 0 1 .655-1.647C4.4 4.27 11.111 3.91 14.6 6.925a14.826 14.826 0 0 1 3.809 4.7 7.4 7.4 0 0 0 3.946 3.981l.192.071a1 1 0 0 1 .432 1.571 6.678 6.678 0 0 1-5.263 2.381M2.953 7.993a15.742 15.742 0 0 1 4.794.766 6.23 6.23 0 0 1 3.629 2.679 9.689 9.689 0 0 1 .879 2.091 6.1 6.1 0 0 0 1.278 2.554 6 6 0 0 0 6.877.806 10.008 10.008 0 0 1-3.813-4.41 12.837 12.837 0 0 0-3.309-4.041C10.724 6.22 5.5 6.342 2.953 7.993"></path>
            <path fill="#b79866" d="M10.158 19.225a9.918 9.918 0 0 1-4.864-1.187 4.944 4.944 0 0 1-2.763-3.926 4.254 4.254 0 0 1 .614-2.458 1 1 0 1 1 1.724 1.011 2.305 2.305 0 0 0-.342 1.322A3.033 3.033 0 0 0 6.283 16.3a8.187 8.187 0 0 0 4.493.906 9.414 9.414 0 0 0 2.06-.355 1 1 0 0 1 .561 1.92 11.446 11.446 0 0 1-2.5.432q-.373.022-.743.023"></path>
            <path fill="#fff" d="M10.194 6.028 7.165 9.114"></path>
            <path fill="#b79866" d="m6.451 8.414 3.0268-3.0873 1.428 1.4L7.879 9.814z"></path>
            <path fill="#fff" d="m13.961 7.985-3.115 3.174"></path>
            <path fill="#b79866" d="m10.132 10.46 3.1136-3.1759 1.428 1.4L11.56 11.86z"></path>
            <path fill="#fff" d="m16.685 11.159-4.438 4.522"></path>
            <path fill="#b79866" d="m11.534 14.982 4.4352-4.5239 1.428 1.4-4.4352 4.5239z"></path>
            <path fill="#fff" d="m19.775 13.921-4.438 4.522"></path>
            <path fill="#b79866" d="m14.624 17.745 4.4359-4.5246 1.428 1.4-4.4359 4.5246z"></path>
          </g>
        </svg>